<?xml version="1.0" encoding="UTF-8" standalone="no"?>
<svg
   width="60"
   height="60"
   version="1.1"
   id="svg6"
   xmlns:xlink="http://www.w3.org/1999/xlink"
   xmlns="http://www.w3.org/2000/svg">
  <defs
     id="defs2">
    <pattern
       id="fishnet"
       x="0"
       y="0"
       width="5"
       height="5"
       patternUnits="userSpaceOnUse">
      <path
         d="M0 5 L5 0 M0 0 L5 5"
         stroke="white"
         stroke-width="0.6"
         opacity="1"
         id="path1" />
    </pattern>
    <clipPath
       id="white-fish-body-clip">
      <path
         d="M30,30 A25,25 0 0,0 30,55 A12.5,12.5 0 0,1 30,30 Z"
         id="path2" />
    </clipPath>
    <radialGradient
       id="radialGradient9"
       cx="30"
       cy="17.5"
       fx="30"
       fy="17.5"
       r="3"
       gradientUnits="userSpaceOnUse"
       gradientTransform="translate(-14)">
      <stop
         style="stop-color:#000000;stop-opacity:1;"
         offset="0"
         id="stop8" />
      <stop
         style="stop-color:#000000;stop-opacity:0;"
         offset="1"
         id="stop9" />
    </radialGradient>
  </defs>
  <g
     transform="translate(14, 0)"
     id="g6">
    <circle
       cx="16"
       cy="30"
       r="25"
       fill="#FFE34A"
       stroke="black"
       stroke-width="2"
       id="circle2"
       style="fill:#ffe34a;fill-opacity:1;stroke:#000000;stroke-opacity:0" />
    <path
       d="M 16,5 A 25,25 0 0 1 16,55 12.5,12.5 0 0 1 16,30 12.5,12.5 0 0 0 16,5"
       fill="#6B6B6B"
       id="path3"
       style="fill:#6b6b6b;fill-opacity:1" />
    <rect
       x="5"
       y="5"
       width="50"
       height="50"
       fill="url(#fishnet)"
       clip-path="url(#white-fish-body-clip)"
       id="rect3"
       transform="rotate(25.034187,34.19798,-15.283077)"
       style="fill:url(#fishnet);fill-opacity:1;stroke:none" />
    <circle
       cx="16"
       cy="17.5"
       r="5"
       fill="#FFFFFF"
       id="circle3" />
    <circle
       cx="16"
       cy="42.5"
       r="5"
       fill="#FFFFFF"
       id="circle4" />
    <circle
       cx="16"
       cy="17.5"
       r="2.5"
       fill="#FFD700"
       id="circle5"
       style="fill:#ffd700;fill-opacity:0.401338;stroke:url(#radialGradient9);stroke-opacity:1" />
    <circle
       cx="16"
       cy="42.5"
       r="2.5"
       fill="#FFFFFF"
       id="circle6" />
  </g>
</svg>
